<svg xmlns="http://www.w3.org/2000/svg" width="32" height="32" viewBox="0 0 32 32" fill="none">
  <defs>
    <linearGradient id="sg" x1="0" y1="0" x2="0" y2="1">
      <stop offset="0%" stop-color="#6366f1"/>
      <stop offset="100%" stop-color="#4f46e5"/>
    </linearGradient>
  </defs>
  <rect width="32" height="32" rx="8" fill="url(#sg)"/>
  <path d="M16 4L6 9v7c0 6.075 3.925 11.925 10 14 6.075-2.075 10-7.925 10-14V9l-10-5z" fill="white" opacity="0.95"/>
  <path d="M16 6.5L8 10.5v5.5c0 5.2 3.2 10.2 8 12 4.8-1.8 8-6.8 8-12V10.5l-8-4z" fill="#e0e7ff"/>
  <path d="M16 9l-6 3v4.5c0 4.2 2.7 8.2 6 9.5 3.3-1.3 6-5.3 6-9.5V12l-6-3z" fill="#c7d2fe"/>
  <path d="M12.5 16.5L15 19l5-5" stroke="#4f46e5" stroke-width="1.5" stroke-linecap="round" stroke-linejoin="round" fill="none"/>
</svg>
